/* XPM */
static char * radrails_xpm[] = {
"48 48 457 2",
"  	c None",
". 	c #130304",
"+ 	c #751E1E",
"@ 	c #B13738",
"# 	c #BE3E3E",
"$ 	c #BD3A3B",
"% 	c #BA3537",
"& 	c #BA3637",
"* 	c #BB3737",
"= 	c #BB3738",
"- 	c #BB3637",
"; 	c #BB3636",
"> 	c #BC3839",
", 	c #BA3738",
"' 	c #A83236",
") 	c #97414C",
"! 	c #771E1E",
"~ 	c #CD4343",
"{ 	c #D13F3F",
"] 	c #CF3B3B",
"^ 	c #CE3939",
"/ 	c #CE3B3B",
"( 	c #D14040",
"_ 	c #A93337",
": 	c #B43A3A",
"< 	c #D24343",
"[ 	c #C83030",
"} 	c #C53030",
"| 	c #C43030",
"1 	c #C42E2E",
"2 	c #C32C2C",
"3 	c #D13D3D",
"4 	c #BE3F40",
"5 	c #D03E3E",
"6 	c #C63030",
"7 	c #C43131",
"8 	c #C12929",
"9 	c #C43333",
"0 	c #C83D3D",
"a 	c #C73D3D",
"b 	c #C22A2A",
"c 	c #C43232",
"d 	c #CE3838",
"e 	c #BE3D3E",
"f 	c #CF3D3D",
"g 	c #C12828",
"h 	c #D46767",
"i 	c #F4D8D8",
"j 	c #FAEBEB",
"k 	c #F9EBEB",
"l 	c #F2D1D1",
"m 	c #D05858",
"n 	c #C22929",
"o 	c #CC3636",
"p 	c #BB3739",
"q 	c #C32D2D",
"r 	c #C73A3A",
"s 	c #F9EAEA",
"t 	c #FFFFFF",
"u 	c #F3D6D6",
"v 	c #C42F2F",
"w 	c #BB3839",
"x 	c #C22B2B",
"y 	c #CC4C4C",
"z 	c #FEFBFB",
"A 	c #FAEEEE",
"B 	c #CB4949",
"C 	c #FDF9F9",
"D 	c #FAECEC",
"E 	c #C73B3B",
"F 	c #C32E2E",
"G 	c #C12525",
"H 	c #C12626",
"I 	c #C32F2F",
"J 	c #BB383A",
"K 	c #C22C2C",
"L 	c #D26262",
"M 	c #D26161",
"N 	c #C02323",
"O 	c #FEFAFA",
"P 	c #CE5151",
"Q 	c #C12727",
"R 	c #C63636",
"S 	c #D87676",
"T 	c #D66E6E",
"U 	c #ECBBBB",
"V 	c #EAB4B4",
"W 	c #C53333",
"X 	c #F1CFCF",
"Y 	c #ECBABA",
"Z 	c #C22828",
"` 	c #C02424",
" .	c #C73C3C",
"..	c #F1CECE",
"+.	c #ECBCBC",
"@.	c #C22D2D",
"#.	c #EDBEBE",
"$.	c #EDBFBF",
"%.	c #C32B2B",
"&.	c #D56969",
"*.	c #F3D3D3",
"=.	c #EFC6C6",
"-.	c #D56868",
";.	c #C73939",
">.	c #C53434",
",.	c #D15D5D",
"'.	c #BB3536",
").	c #D67070",
"!.	c #FCF5F5",
"~.	c #F3D4D4",
"{.	c #F6DFDF",
"].	c #F9E7E7",
"^.	c #F7E2E2",
"/.	c #D26363",
"(.	c #C02525",
"_.	c #D87777",
":.	c #EAB5B5",
"<.	c #C33030",
"[.	c #F4D6D6",
"}.	c #EEBFBF",
"|.	c #C42D2D",
"1.	c #FEFCFC",
"2.	c #E5A4A4",
"3.	c #DF8D8D",
"4.	c #FCF3F3",
"5.	c #EEC3C3",
"6.	c #F9E8E8",
"7.	c #E09090",
"8.	c #C12424",
"9.	c #D46868",
"0.	c #BF2020",
"a.	c #E09191",
"b.	c #FFFEFE",
"c.	c #D56A6A",
"d.	c #EFC7C7",
"e.	c #EFC4C4",
"f.	c #C22727",
"g.	c #EFC5C5",
"h.	c #BB3537",
"i.	c #CE3C3C",
"j.	c #C33131",
"k.	c #CD5050",
"l.	c #EBBABA",
"m.	c #D15C5C",
"n.	c #D36666",
"o.	c #CB4A4A",
"p.	c #C63939",
"q.	c #CB3535",
"r.	c #BB3436",
"s.	c #CD3B3B",
"t.	c #CF5858",
"u.	c #FAEDED",
"v.	c #FEFDFD",
"w.	c #FDF8F8",
"x.	c #CA3535",
"y.	c #C22E2E",
"z.	c #E6A4A4",
"A.	c #C53232",
"B.	c #C93535",
"C.	c #CC3A3A",
"D.	c #FBEDED",
"E.	c #DE8D8D",
"F.	c #BF2323",
"G.	c #C12C2C",
"H.	c #C83434",
"I.	c #BA3435",
"J.	c #CC3939",
"K.	c #C02C2C",
"L.	c #C63C3C",
"M.	c #BE2323",
"N.	c #C23030",
"O.	c #C93333",
"P.	c #BA3334",
"Q.	c #CC3838",
"R.	c #C02D2D",
"S.	c #C13131",
"T.	c #F6DEDE",
"U.	c #E4A3A3",
"V.	c #BD2323",
"W.	c #C13030",
"X.	c #E4A4A4",
"Y.	c #F3D5D5",
"Z.	c #C12E2E",
"`.	c #C02E2E",
" +	c #C83333",
".+	c #CB3838",
"++	c #BF2F2F",
"@+	c #BC2727",
"#+	c #D06565",
"$+	c #F2D3D3",
"%+	c #BE2A2A",
"&+	c #BF2E2E",
"*+	c #BF3030",
"=+	c #BD2B2B",
"-+	c #FFFCFC",
";+	c #F1D0D0",
">+	c #CB5656",
",+	c #BC2828",
"'+	c #C63333",
")+	c #CA3737",
"!+	c #BD2E2E",
"~+	c #BE2F2F",
"{+	c #BB2727",
"]+	c #C13737",
"^+	c #C74848",
"/+	c #C64747",
"(+	c #CF6464",
"_+	c #F0CDCD",
":+	c #CC5B5B",
"<+	c #BA2424",
"[+	c #CC5C5C",
"}+	c #EAB9B9",
"|+	c #C84F4F",
"1+	c #C13939",
"2+	c #C23B3B",
"3+	c #BE2D2D",
"4+	c #BE3030",
"5+	c #BD2F2F",
"6+	c #BA3233",
"7+	c #BC2E2E",
"8+	c #BC2F2F",
"9+	c #BB2B2B",
"0+	c #BA2929",
"a+	c #B72121",
"b+	c #BD3030",
"c+	c #F1D2D2",
"d+	c #EDC4C4",
"e+	c #B92525",
"f+	c #BB2D2D",
"g+	c #EDC5C5",
"h+	c #B92626",
"i+	c #B82424",
"j+	c #BB2F2F",
"k+	c #BA3536",
"l+	c #C83535",
"m+	c #BA2E2E",
"n+	c #B92E2E",
"o+	c #B42020",
"p+	c #CD6767",
"q+	c #FFFDFD",
"r+	c #DB8E8E",
"s+	c #B31C1C",
"t+	c #B82B2B",
"u+	c #CC6464",
"v+	c #B42121",
"w+	c #B82E2E",
"x+	c #C73535",
"y+	c #B72C2C",
"z+	c #B82D2D",
"A+	c #B72B2B",
"B+	c #F5DEDE",
"C+	c #DA8D8D",
"D+	c #B52323",
"E+	c #B42222",
"F+	c #F8E7E7",
"G+	c #BC3535",
"H+	c #B72A2A",
"I+	c #B72D2D",
"J+	c #B93132",
"K+	c #C73434",
"L+	c #B62D2D",
"M+	c #B62C2C",
"N+	c #B52727",
"O+	c #F1D3D3",
"P+	c #EBC2C2",
"Q+	c #C85959",
"R+	c #B62828",
"S+	c #B21F1F",
"T+	c #F6E1E1",
"U+	c #B83030",
"V+	c #B62B2B",
"W+	c #C03030",
"X+	c #BA3132",
"Y+	c #C63434",
"Z+	c #B42D2D",
"`+	c #B52D2D",
" @	c #B12424",
".@	c #BE4444",
"+@	c #FBF2F2",
"@@	c #F0D2D2",
"#@	c #DFA2A2",
"$@	c #D88A8A",
"%@	c #C55959",
"&@	c #AF2020",
"*@	c #B52E2E",
"=@	c #C33333",
"-@	c #B22C2C",
";@	c #B22D2D",
">@	c #B32D2D",
",@	c #B12828",
"'@	c #B22828",
")@	c #E9BEBE",
"!@	c #F1D5D5",
"~@	c #B73737",
"{@	c #B02626",
"]@	c #B12D2D",
"^@	c #B93031",
"/@	c #C03232",
"(@	c #B02C2C",
"_@	c #B12C2C",
":@	c #B02B2B",
"<@	c #B02828",
"[@	c #E5B3B3",
"}@	c #EECFCF",
"|@	c #B33131",
"1@	c #B02929",
"2@	c #B92F2F",
"3@	c #B93131",
"4@	c #AD2222",
"5@	c #C55D5D",
"6@	c #CD7272",
"7@	c #AC1F1F",
"8@	c #B72E2E",
"9@	c #BF3232",
"0@	c #AE2B2B",
"a@	c #AF2B2B",
"b@	c #AB2121",
"c@	c #C45E5E",
"d@	c #F4E0E0",
"e@	c #F6E6E6",
"f@	c #F3DDDD",
"g@	c #EFD2D2",
"h@	c #FCF4F4",
"i@	c #C96B6B",
"j@	c #AB2020",
"k@	c #B83031",
"l@	c #B93233",
"m@	c #BD3131",
"n@	c #AB2A2A",
"o@	c #AC2B2B",
"p@	c #AB2929",
"q@	c #AC2828",
"r@	c #E6B8B8",
"s@	c #F0D6D6",
"t@	c #BF5757",
"u@	c #AE2D2D",
"v@	c #B03434",
"w@	c #C46262",
"x@	c #E9C3C3",
"y@	c #EED0D0",
"z@	c #C46363",
"A@	c #AD2B2B",
"B@	c #AB2525",
"C@	c #B74242",
"D@	c #E7BCBC",
"E@	c #E6BABA",
"F@	c #AC2929",
"G@	c #AB2B2B",
"H@	c #B73030",
"I@	c #BB3030",
"J@	c #AA2A2A",
"K@	c #A82626",
"L@	c #AC2A2A",
"M@	c #E5B8B8",
"N@	c #ECCBCB",
"O@	c #B03535",
"P@	c #A51D1D",
"Q@	c #A92828",
"R@	c #A92727",
"S@	c #A51E1E",
"T@	c #A82121",
"U@	c #E4B7B7",
"V@	c #A62121",
"W@	c #AA2626",
"X@	c #E2B0B0",
"Y@	c #E4B6B6",
"Z@	c #AA2B2B",
"`@	c #B62F30",
" #	c #B93030",
".#	c #A82A2A",
"+#	c #A92A2A",
"@#	c #A62525",
"##	c #C46868",
"$#	c #C76F6F",
"%#	c #AC2F2F",
"&#	c #A62323",
"*#	c #A92B2B",
"=#	c #A42020",
"-#	c #B74A4A",
";#	c #C06060",
">#	c #A31C1C",
",#	c #A72626",
"'#	c #BE5A5A",
")#	c #BF5B5B",
"!#	c #A82727",
"~#	c #A72525",
"{#	c #B72F2F",
"]#	c #A52929",
"^#	c #A62929",
"/#	c #A62A2A",
"(#	c #A52727",
"_#	c #A21E1E",
":#	c #A11D1D",
"<#	c #A52626",
"[#	c #A42525",
"}#	c #AC3333",
"|#	c #B34141",
"1#	c #A32323",
"2#	c #A62828",
"3#	c #A22020",
"4#	c #B52F30",
"5#	c #B62E2E",
"6#	c #AD3535",
"7#	c #F9ECEC",
"8#	c #B34343",
"9#	c #B42E2F",
"0#	c #B92F30",
"a#	c #B42E2E",
"b#	c #A32828",
"c#	c #A42929",
"d#	c #A32727",
"e#	c #A42626",
"f#	c #EED2D2",
"g#	c #F7E7E7",
"h#	c #A83131",
"i#	c #A22525",
"j#	c #A32929",
"k#	c #B32D2E",
"l#	c #B82F30",
"m#	c #B32E2E",
"n#	c #A02828",
"o#	c #9D2020",
"p#	c #B34F4F",
"q#	c #EBCECE",
"r#	c #F7E9E9",
"s#	c #EED5D5",
"t#	c #BB5F5F",
"u#	c #9C1F1F",
"v#	c #9F2828",
"w#	c #B53031",
"x#	c #9B2020",
"y#	c #9F2626",
"z#	c #A63333",
"A#	c #A12929",
"B#	c #9B1F1F",
"C#	c #9E2828",
"D#	c #B63031",
"E#	c #B82E2F",
"F#	c #9D2727",
"G#	c #9C2727",
"H#	c #9B2525",
"I#	c #9A2323",
"J#	c #9D2828",
"K#	c #AF2C2C",
"L#	c #AD2C2C",
"M#	c #A73033",
"N#	c #A22828",
"O#	c #97434D",
"P#	c #A83337",
"Q#	c #B32E2F",
"R#	c #B22E2F",
"S#	c #B22F2F",
"T#	c #B43233",
"U#	c #B63434",
"V#	c #AB2D2E",
"W#	c #751D1D",
"X#	c #120303",
". + @ # $ % & & & % & * = = * * * * * * * * * * * * * * * - - ; - - - - - * * * - - - - > , ' ) ",
"! ~ { ] ^ ^ ^ ^ ^ ^ ^ ^ ^ ^ ^ ^ ^ ^ ^ ^ ^ ^ ^ ^ ^ ^ ^ ^ ^ ^ ^ ^ ^ ^ ^ ^ ^ ^ ^ ^ ^ ^ ^ ^ / ( ~ _ ",
": < [ } | | | | | | | | | | | | | | | | | | 1 2 2 1 | | | | | | | | | | | | | | | | | | } [ 3 , ",
"4 5 6 7 7 7 7 7 7 7 7 7 7 7 7 7 7 7 7 7 7 8 9 0 a | b c 7 7 7 7 7 7 7 7 7 7 7 7 7 7 7 7 7 | d * ",
"e f } 7 7 7 7 7 7 7 7 7 7 7 7 7 7 7 7 7 g h i j k l m n 7 7 7 7 7 7 7 7 7 7 7 7 7 7 7 7 7 | o - ",
"p f } 7 7 7 7 7 7 7 7 7 7 7 7 7 7 7 7 q r s t t t t u v v 7 7 7 7 7 7 7 7 7 7 7 7 7 7 7 7 | o ; ",
"w f } 7 7 7 7 7 7 7 7 7 7 7 7 7 7 7 7 x y z t t t t A 0 q 7 7 7 7 7 7 7 7 7 7 7 7 7 7 7 7 | o ; ",
"w f } 7 7 7 7 7 7 7 v g g | 7 7 7 7 7 x B C t t t t D E q 7 7 7 7 7 F G H I 7 7 7 7 7 7 7 | o - ",
"J f } 7 7 7 7 7 7 K F L M F q 7 7 7 c N h t t t t t O P Q 7 7 7 c b R S T v K 7 7 7 7 7 7 | o - ",
"w f } 7 7 7 7 7 K c U t t V q g | I N W X t t t t t t Y Z ` F F N  ...t t +.c @.7 7 7 7 7 | o - ",
"w f } 7 7 7 7 I | #.t t t t $.B %.c &.*.t t t t t t t t =.-.;.>.,.i t t t t +.F I 7 7 7 7 | o '.",
"w f } 7 7 7 7 H ).t t t t t t !.~.{.t t t t t t t t t t t t ].^.t t t t t t t /.Q 7 7 7 7 | o '.",
"w f } 7 7 7 7 (._.t t t t t t t t t t t t t t t t t t t t t t t t t t t t t t L g 7 7 7 7 | o ; ",
"w f } 7 7 7 7 F R l t t t t t t t t t t t t t t t t t t t t t t t t t t t t :.F <.7 7 7 7 | o - ",
"w f } 7 7 7 7 7 b  .[.t t t t t t t t t t t t t t t t t t t t t t t t t t }.|.q 7 7 7 7 7 | o - ",
"w f } 7 7 7 7 7 c ` ,.1.t t t t t t t t t ~.2.3.3.2.~.t t t t t t t t t 4.B g 7 7 7 7 7 7 | o - ",
"w f } 7 7 7 7 7 7 I >.^.t t t t t t t 5.,.2 N N N N q ,.5.t t t t t t t ~.%.| 7 7 7 7 7 7 | o - ",
"w f } 7 7 7 7 7 7 F r 6.t t t t t t 7.Q Q | 7 7 7 7 | Q Q 7.t t t t t t {.c I 7 7 7 7 7 7 | o - ",
"w f } 7 7 7 7 7 7 8.9.t t t t t t 7.0.I 7 7 7 7 7 7 7 7 I 0.a.t t t t t b.c.` c 7 7 7 7 7 | o - ",
"w f } 7 7 I q q H Z d.t t t t t e.Q I 7 7 7 7 7 7 7 7 7 7 I f.g.t t t t t ~.7 N x x F 7 7 | o h.",
"= i.v j.g I 0 r k.l.t t t t t 1.m.(.<.<.<.<.<.<.<.<.<.<.<.<.(.,.1.t t t t t ..n.B o.p.g j.I q.r.",
"p s.<.8 t.l u.j v.t t t t t t ~.2 I 7 7 7 7 7 7 7 7 7 7 7 7 I 2 ~.t t t t t t t w.w.^.n.g <.x.'.",
"p s.y.| [.t t t t t t t t t t 2.` 7 7 7 7 7 7 7 7 7 7 7 7 7 7 ` z.t t t t t t t t t t {.A.y.B.'.",
"w C.K  .D.t t t t t t t t t t E.F.<.<.<.<.<.<.<.<.<.<.<.<.<.<.F.E.t t t t t t t t t t D. .G.H.I.",
"= J.K.L.u.t t t t t t t t t t E.M.N.N.N.N.N.N.N.N.N.N.N.N.N.N.M.E.t t t t t t t t t t u.L.K.O.P.",
"= Q.R.S.T.t t t t t t t t t t U.V.W.W.W.W.W.W.W.W.W.W.W.W.W.W.V.X.t t t t t t t t t t Y.Z.`. +P.",
"= .+++@+#+^.w.w.t t t t t t t $+%+&+*+*+*+*+*+*+*+*+*+*+*+*+&+=+$+t t t t t t -+k u.;+>+,+*+'+P.",
"- )+!+~+{+]+^+/+(+_+t t t t t 1.:+<+~+~+~+~+~+~+~+~+~+~+~+~+<+[+1.t t t t t }+|+1+2+3+{+4+5+c 6+",
"'.B.7+8+8+9+0+0+a+b+c+t t t t t d+e+f+8+8+8+8+8+8+8+8+8+8+f+e+d+t t t t t g+h+i+9+9+f+8+8+j+7 6+",
"k+l+m+n+n+n+n+n+n+o+p+q+t t t t t r+s+t+n+n+n+n+n+n+n+n+t+s+r+t t t t t t u+v+n+n+n+n+n+n+w+j.6+",
"k+x+y+z+z+z+z+z+z+A+n+B+t t t t t t C+D+E+y+z+z+z+z+y+E+D+C+t t t t t t F+G+H+z+z+z+z+z+z+I+W.J+",
"I.K+L+I+I+I+I+I+I+M+N+O+t t t t t t t P+Q+R+S+S+S+S+R+Q+P+t t t t t t t T+U+V+I+I+I+I+I+I+L+W+X+",
"I.Y+Z+`+`+`+`+`+`+ @.@+@t t t t t t t t t @@#@$@$@#@@@t t t t t t t t t z %@&@*@`+`+`+`+`+Z+~+J+",
"P.=@-@;@;@;@;@>@,@'@)@t t t t t t t t t t t t t t t t t t t t t t t t t t !@~@{@>@;@;@;@;@]@j+^@",
"P./@(@_@_@_@_@:@<@[@t t t t t t t t t t t t t t t t t t t t t t t t t t t t }@|@1@_@_@_@_@(@2@3@",
"P./@:@_@_@_@_@4@5@t t t t t t t t t t t t t t t t t t t t t t t t t t t t t t 6@7@_@_@_@_@(@8@3@",
"P.9@0@a@a@a@a@b@c@t t t t t t t d@e@t t t t t t t t t t t t f@g@h@t t t t t t i@j@a@a@a@a@0@L+k@",
"l@m@n@o@o@o@o@p@q@r@t t t t s@t@u@v@w@x@t t t t t t t t y@z@A@B@C@D@t t t t E@F@p@o@o@o@o@G@Z+H@",
"l@I@J@G@G@G@G@G@K@L@M@t t N@O@P@Q@R@S@T@U@t t t t t t N@o@P@Q@J@V@W@X@t t Y@L@K@G@G@G@G@G@Z@>@`@",
"l@ #.#+#+#+#+#+#+#@#Q@##$#%#&#*#+#+#+#=#-#O t t t t b.;#>#+#+#+#+#,#K@'#)#!#~#+#+#+#+#+#+#.#_@`@",
"^@{#]#^#^#^#^#^#^#/#(#_#:#<#/#^#^#^#^#[#}#s t t t t w.|#1#^#^#^#^#^#2#3#3#2#^#^#^#^#^#^#^#]#a@4#",
"^@5#]#^#^#^#^#^#^#^#^#^#^#^#^#^#^#^#^#[#6#7#t t t t z 8#1#^#^#^#^#^#^#^#^#^#^#^#^#^#^#^#^#]#A@9#",
"0#a#b#c#c#c#c#c#c#c#c#c#c#c#c#c#c#c#c#d#e#f#t t t t g#h#i#c#c#c#c#c#c#c#c#c#c#c#c#c#c#c#c#j#G@k#",
"l#m#n#n#n#n#n#n#n#n#n#n#n#n#n#n#n#n#n#n#o#p#q#r#r#s#t#u#n#n#n#n#n#n#n#n#n#n#n#n#n#n#n#n#n#v#J@w#",
"0#*@v#v#v#v#v#v#v#v#v#v#v#v#v#v#v#v#v#v#v#x#y#z#z#A#B#v#v#v#v#v#v#v#v#v#v#v#v#v#v#v#v#v#v#C#n@D#",
"E#5#F#G#G#G#G#G#G#G#G#G#G#G#G#G#G#G#G#G#G#G#H#I#I#H#G#G#G#G#G#G#G#G#G#G#G#G#G#G#G#G#G#G#G#J#K#L#",
"M#8+A@^#c#N#N#N#N#N#N#N#N#N#N#N#N#N#N#N#N#N#N#N#N#N#N#N#N#N#N#N#N#N#N#N#N#N#N#N#N#N#N#b#]#o@n+! ",
"O#P#9#Q#R#R#R#R#R#R#R#R#R#R#R#R#R#R#R#R#R#R#R#R#R#R#R#R#R#R#R#R#R#R#R#R#S#R#R#R#R#R#R#T#U#V#W#X#"};
